<?xml version="1.0" encoding="UTF-8" standalone="no"?>
<!-- Created with Inkscape (http://www.inkscape.org/) -->

<svg
   xmlns:dc="http://purl.org/dc/elements/1.1/"
   xmlns:cc="http://creativecommons.org/ns#"
   xmlns:rdf="http://www.w3.org/1999/02/22-rdf-syntax-ns#"
   xmlns:svg="http://www.w3.org/2000/svg"
   xmlns="http://www.w3.org/2000/svg"
   xmlns:sodipodi="http://sodipodi.sourceforge.net/DTD/sodipodi-0.dtd"
   xmlns:inkscape="http://www.inkscape.org/namespaces/inkscape"
   width="1024"
   height="1024"
   viewBox="0 0 270.93332 270.93334"
   version="1.1"
   id="svg8"
   inkscape:version="0.92.3 (2405546, 2018-03-11)"
   sodipodi:docname="Logo.svg"
   inkscape:export-filename="C:\Users\Samuel\Icon.png"
   inkscape:export-xdpi="24"
   inkscape:export-ydpi="24">
  <defs
     id="defs2" />
  <sodipodi:namedview
     id="base"
     pagecolor="#ffffff"
     bordercolor="#666666"
     borderopacity="1.0"
     inkscape:pageopacity="0.0"
     inkscape:pageshadow="2"
     inkscape:zoom="0.7"
     inkscape:cx="138.75654"
     inkscape:cy="538.13527"
     inkscape:document-units="mm"
     inkscape:current-layer="layer1"
     showgrid="false"
     units="px"
     showguides="true"
     inkscape:guide-bbox="true"
     inkscape:window-width="1733"
     inkscape:window-height="1008"
     inkscape:window-x="178"
     inkscape:window-y="0"
     inkscape:window-maximized="0" />
  <metadata
     id="metadata5">
    <rdf:RDF>
      <cc:Work
         rdf:about="">
        <dc:format>image/svg+xml</dc:format>
        <dc:type
           rdf:resource="http://purl.org/dc/dcmitype/StillImage" />
        <dc:title />
      </cc:Work>
    </rdf:RDF>
  </metadata>
  <g
     inkscape:label="Ebene 1"
     inkscape:groupmode="layer"
     id="layer1"
     transform="translate(0,-26.06665)">
    <ellipse
       id="path3715"
       cx="135.89256"
       cy="161.88075"
       style="fill:#04c800;stroke-width:0.31417122"
       rx="135.49434"
       ry="135.59056" />
    <g
       style="fill:#000000"
       id="g3744"
       transform="matrix(10.184508,0,0,10.191742,0.2696699,22.008493)">
      <path
         id="path3730"
         d="M 0,0 H 24 V 24 H 0 Z"
         inkscape:connector-curvature="0"
         style="fill:none" />
    </g>
    <g
       style="fill:#000000"
       id="g4608"
       transform="matrix(8.7263737,0,0,8.7325719,35.264895,57.028576)">
      <path
         id="path4594"
         d="M 0,0 H 24 V 24 H 0 Z"
         inkscape:connector-curvature="0"
         style="fill:none" />
      <path
         id="path4596"
         d="M 20,4 H 4 C 2.9,4 2.01,4.9 2.01,6 L 2,18 c 0,1.1 0.9,2 2,2 h 16 c 1.1,0 2,-0.9 2,-2 V 6 C 22,4.9 21.1,4 20,4 Z M 19.133715,17.091047 4.9095989,16.917913 4.8229704,9.7746231 12.129943,14.168654 19.133715,8.6925358 Z M 12,11 5.1261701,6.7791028 16.794747,6.9522368 Z"
         inkscape:connector-curvature="0"
         style="fill:#ffffff;stroke-width:0.02291089;stroke-miterlimit:4;stroke-dasharray:none"
         sodipodi:nodetypes="ssccssssscccccccccc" />
    </g>
    <rect
       style="fill:#04c800;fill-opacity:1;stroke-width:0.38890153"
       id="rect4557"
       width="82.53846"
       height="51.516922"
       x="46.066452"
       y="190.75116"
       transform="matrix(0.80925673,-0.58745514,0.57005817,0.82160433,0,0)" />
    <path
       id="path3719"
       d="m 237.82514,108.50735 c 1.46974,-1.10178 1.41316,-3.72891 -0.11884,-5.69367 l -9.20191,-12.273517 c -1.45681,-2.021309 -3.95805,-2.805918 -5.42584,-1.701914 l -6.92642,5.168696 14.74698,19.668915 m -60.36341,14.6837 0.3162,15.14266 14.43057,4.52632 41.62693,-31.35185 -14.74699,-19.66892 z"
       inkscape:connector-curvature="0"
       style="fill:#ffffff;stroke-width:3.92902899" />
  </g>
</svg>
